<svg width="20" height="20" viewBox="0 0 20 20" fill="none" xmlns="http://www.w3.org/2000/svg">
<path d="M3.33398 17.5C3.33398 17.0397 3.70708 16.6666 4.16732 16.6666H15.834C16.2942 16.6666 16.6673 17.0397 16.6673 17.5C16.6673 17.9602 16.2942 18.3333 15.834 18.3333H4.16732C3.70708 18.3333 3.33398 17.9602 3.33398 17.5Z" fill="currentColor"/>
<path fill-rule="evenodd" clip-rule="evenodd" d="M10.343 2.64537C11.6448 1.34363 13.7553 1.34363 15.0571 2.64538L15.6882 3.27651C16.9899 4.57825 16.9899 6.68881 15.6882 7.99056L9.93311 13.7456C9.70192 13.9768 9.40783 14.1349 9.08746 14.2002L5.33447 14.9651C4.16401 15.2037 3.12999 14.1697 3.36852 12.9992L4.13336 9.24612C4.19865 8.92573 4.35674 8.63162 4.58795 8.40041L10.343 2.64537ZM13.8785 3.82389C13.2277 3.17302 12.1724 3.17302 11.5215 3.82389L11.1785 4.16692L14.1666 7.15507L14.5097 6.81204C15.1606 6.16117 15.1606 5.10589 14.5097 4.45502L13.8785 3.82389ZM7.01181 8.33358L9.99998 5.34543L12.9881 8.33358L9.99997 11.3217L7.01181 8.33358ZM5.8333 9.51208L5.76646 9.57893L5.00162 13.332L8.7546 12.5671L8.82145 12.5002L5.8333 9.51208Z" fill="currentColor"/>
</svg>
